<svg width="9" height="5" viewBox="0 0 9 5" fill="none" xmlns="http://www.w3.org/2000/svg">
<path id="Icon ionic-ios-arrow-down" d="M4.50207 3.49299L7.90466 0.183988C7.96415 0.125725 8.03492 0.0794817 8.11288 0.047925C8.19085 0.0163683 8.27447 0.00012207 8.35892 0.00012207C8.44338 0.00012207 8.527 0.0163683 8.60496 0.047925C8.68293 0.0794817 8.7537 0.125725 8.81319 0.183988C8.93289 0.301885 9 0.460855 9 0.626488C9 0.79212 8.93289 0.951089 8.81319 1.06899L4.95273 4.81799C4.83568 4.93133 4.67818 4.99645 4.51298 4.9998C4.34779 5.00316 4.18763 4.94448 4.06581 4.83599L0.18889 1.07199C0.1291 1.01401 0.0816454 0.945152 0.0492357 0.869349C0.016826 0.793547 9.5955e-05 0.712282 4.11555e-07 0.630195C-9.51319e-05 0.548108 0.0164457 0.466806 0.0486788 0.390932C0.080912 0.315058 0.128206 0.246097 0.187861 0.187987C0.247515 0.129877 0.318362 0.0837567 0.396356 0.0522575C0.474351 0.0207584 0.557965 0.00449788 0.642424 0.00440502C0.726884 0.00431216 0.810536 0.0203883 0.888603 0.0517159C0.966671 0.0830434 1.03762 0.129008 1.09741 0.186987L4.50207 3.49299Z" fill="#011950"/>
</svg>
