<svg width="6" height="10" viewBox="0 0 6 10" fill="none" xmlns="http://www.w3.org/2000/svg">
<path id="Icon ionic-ios-arrow-forward" d="M1.76965 4.99845L5.07865 1.59546C5.13691 1.53597 5.18315 1.46519 5.21471 1.38722C5.24627 1.30924 5.26251 1.22561 5.26251 1.14115C5.26251 1.05668 5.24627 0.973054 5.21471 0.895081C5.18315 0.817107 5.13691 0.746332 5.07865 0.686835C4.96075 0.567121 4.80178 0.5 4.63615 0.5C4.47051 0.5 4.31154 0.567121 4.19365 0.686835L0.444647 4.54156C0.331305 4.65862 0.266184 4.81615 0.262831 4.98136C0.259479 5.14657 0.318153 5.30675 0.426647 5.42858L4.19165 9.31109C4.24962 9.37088 4.31848 9.41834 4.39429 9.45076C4.47009 9.48317 4.55135 9.4999 4.63344 9.5C4.71553 9.50009 4.79683 9.48355 4.8727 9.45132C4.94858 9.41908 5.01754 9.37178 5.07565 9.31212C5.13376 9.25246 5.17988 9.1816 5.21138 9.1036C5.24288 9.0256 5.25914 8.94197 5.25923 8.8575C5.25932 8.77303 5.24325 8.68937 5.21192 8.61129C5.18059 8.53322 5.13463 8.46226 5.07665 8.40246L1.76965 4.99845Z" fill="#001E63"/>
</svg>
