<svg width="5" height="9" viewBox="0 0 5 9" fill="none" xmlns="http://www.w3.org/2000/svg">
<path d="M1.50695 4.49845L4.81595 1.09546C4.87421 1.03597 4.92046 0.965192 4.95201 0.887218C4.98357 0.809245 4.99982 0.725615 4.99982 0.64115C4.99982 0.556684 4.98357 0.473054 4.95201 0.395081C4.92046 0.317107 4.87421 0.246332 4.81595 0.186835C4.69805 0.0671213 4.53908 0 4.37345 0C4.20782 0 4.04885 0.0671213 3.93095 0.186835L0.181951 4.04156C0.0686095 4.15862 0.00348873 4.31615 0.000136149 4.48136C-0.00321643 4.64657 0.0554576 4.80675 0.163952 4.92858L3.92895 8.81109C3.98693 8.87089 4.05579 8.91834 4.13159 8.95076C4.20739 8.98317 4.28866 8.9999 4.37074 9C4.45283 9.00009 4.53413 8.98355 4.61001 8.95132C4.68588 8.91908 4.75484 8.87178 4.81295 8.81212C4.87106 8.75246 4.91718 8.6816 4.94868 8.6036C4.98018 8.5256 4.99644 8.44197 4.99653 8.3575C4.99663 8.27303 4.98055 8.18937 4.94922 8.11129C4.9179 8.03322 4.87193 7.96226 4.81395 7.90246L1.50695 4.49845Z" fill="white"/>
</svg>
