<svg width="5" height="9" viewBox="0 0 5 9" fill="none" xmlns="http://www.w3.org/2000/svg">
<path id="Icon ionic-ios-arrow-forward" d="M3.49201 4.4969L0.183011 1.09534C0.124748 1.03585 0.0785051 0.965081 0.0469484 0.887116C0.0153917 0.809152 -0.000854492 0.725531 -0.000854492 0.641076C-0.000854492 0.55662 0.0153917 0.473 0.0469484 0.395035C0.0785051 0.317071 0.124748 0.246303 0.183011 0.186813C0.300909 0.0671131 0.459879 0 0.625511 0C0.791144 0 0.950113 0.0671131 1.06801 0.186813L4.81701 4.04213C4.93035 4.15918 4.99547 4.31668 4.99883 4.48187C5.00218 4.64707 4.94351 4.80723 4.83501 4.92905L1.07001 8.81111C1.01203 8.8709 0.943175 8.91835 0.867373 8.95076C0.79157 8.98317 0.710305 8.9999 0.628218 9C0.546131 9.0001 0.464829 8.98355 0.388955 8.95132C0.313081 8.91909 0.24412 8.87179 0.18601 8.81214C0.1279 8.75248 0.0817797 8.68164 0.0502806 8.60364C0.0187814 8.52565 0.00252091 8.44204 0.00242805 8.35758C0.0023352 8.27312 0.0184113 8.18946 0.0497389 8.1114C0.0810664 8.03333 0.127032 7.96238 0.185011 7.90259L3.49201 4.4969Z" fill="#001E63"/>
</svg>
