<svg width="258" height="180" viewBox="0 0 258 180" fill="none" xmlns="http://www.w3.org/2000/svg">
<g clip-path="url(#clip0_33_2158)">
<path d="M180.091 0H0V180H180.091V0Z" fill="#ECECF4"/>
<path d="M102.972 132.45H17.4588V45.4199H258V113.7H252.997V50.4199H22.4613V127.45H102.972V132.45Z" fill="black"/>
<path d="M122.952 101.22C124.473 101.22 125.773 100.92 126.994 100.35L126.604 104.73C125.173 105.34 123.562 105.64 122.091 105.64C117.229 105.64 114.188 103.21 114.188 98.26V77.73L119.61 76.99V82.89H127.034L126.644 86.93H119.61V97.61C119.61 100.34 121.171 101.21 122.952 101.21V101.22Z" fill="black"/>
<path d="M42.5014 104.75V73.77H60.6105V78.72H48.2243V86.6H58.8997V91.6H48.2243V99.79H60.6105V104.74H42.5014V104.75Z" fill="black"/>
<path d="M77.1588 104.75L72.7866 97.05H72.4765L68.1043 104.75H62.4714L69.3649 93.09L62.6515 81.79H68.5945L72.7366 89.08H73.0067L77.1488 81.79H82.7817L76.1583 93.05L83.0518 104.76H77.1488H77.1588V104.75Z" fill="black"/>
<path d="M97.159 104.93C96.0784 105.05 95.0579 105.11 94.0974 105.11C91.5161 105.11 89.6052 104.69 88.3745 103.85C87.1439 103.01 86.3435 101.79 85.9833 100.18C85.6231 98.5799 85.4431 96.2699 85.4431 93.2699C85.4431 90.2699 85.6432 88.0299 86.0534 86.3799C86.4636 84.7299 87.274 83.4899 88.4846 82.6699C89.7052 81.8399 91.5361 81.4299 94.0074 81.4299C95.0279 81.4299 96.0684 81.4899 97.1389 81.6099C98.1995 81.7299 99.0699 81.8999 99.7303 82.0999V86.3299C98.4396 86.0899 97.0089 85.9699 95.4481 85.9699C94.0374 85.9699 93.0269 86.1399 92.4066 86.4899C91.7862 86.8399 91.386 87.4999 91.1859 88.4699C90.9858 89.4499 90.8958 91.0399 90.8958 93.2599C90.8958 95.4799 90.9958 97.1199 91.216 98.0999C91.4261 99.0799 91.8363 99.7299 92.4566 100.06C93.0669 100.39 94.0874 100.55 95.4981 100.55C97.0589 100.55 98.5296 100.45 99.9103 100.24V104.43C99.16 104.64 98.2395 104.81 97.159 104.93Z" fill="black"/>
<path d="M104.323 76.43V71.3H109.865V76.43H104.323ZM104.373 104.75V81.79H109.825V104.75H104.373Z" fill="black"/>
<path d="M147.884 95.0199H135.318C135.318 96.8199 135.418 98.0699 135.608 98.7799C135.798 99.4899 136.269 99.9699 137.009 100.22C137.749 100.48 139.03 100.6 140.861 100.6C142.812 100.6 144.913 100.48 147.164 100.24V104.43C146.294 104.64 145.153 104.81 143.742 104.93C142.332 105.05 140.961 105.11 139.64 105.11C136.669 105.11 134.498 104.73 133.127 103.96C131.756 103.19 130.876 102.02 130.466 100.45C130.056 98.8699 129.855 96.4999 129.855 93.3099C129.855 90.1199 130.056 87.8699 130.466 86.2599C130.876 84.6499 131.736 83.4499 133.057 82.6399C134.378 81.8299 136.439 81.4199 139.23 81.4199C142.022 81.4199 143.933 81.8099 145.153 82.5899C146.374 83.3699 147.124 84.5299 147.424 86.0799C147.724 87.6299 147.874 90.0299 147.874 93.3099V95.0199H147.884ZM136.619 86.2899C136.109 86.5599 135.768 87.0599 135.608 87.7799C135.438 88.4999 135.348 89.6899 135.318 91.3399H142.752C142.752 89.6899 142.652 88.4899 142.462 87.7399C142.262 86.9899 141.922 86.4999 141.421 86.2499C140.921 86.0099 140.171 85.8899 139.15 85.8899C137.98 85.8899 137.139 86.0199 136.629 86.2999H136.619V86.2899Z" fill="black"/>
<path d="M167.945 104.9C166.714 105.04 165.553 105.1 164.473 105.1C161.141 105.1 158.7 104.65 157.149 103.75C155.598 102.85 154.568 101.32 154.038 99.1599C153.507 96.9999 153.247 93.6999 153.247 89.2599C153.247 84.8199 153.507 81.5199 154.038 79.3799C154.558 77.2299 155.608 75.6999 157.169 74.7899C158.73 73.8699 161.161 73.4199 164.463 73.4199C165.603 73.4199 166.774 73.4999 167.975 73.6499C169.175 73.7999 170.136 73.9799 170.856 74.1899V78.7799C168.575 78.5099 166.874 78.3699 165.763 78.3699C163.512 78.3699 161.952 78.5899 161.081 79.0199C160.211 79.4599 159.65 80.3699 159.39 81.7699C159.13 83.1699 159.01 85.6599 159.01 89.2699C159.01 92.8799 159.14 95.3699 159.39 96.7699C159.64 98.1699 160.211 99.0799 161.081 99.5199C161.952 99.9599 163.512 100.17 165.763 100.17C167.504 100.17 169.245 100.04 170.986 99.7599V104.4C170.176 104.61 169.155 104.78 167.925 104.92L167.945 104.9Z" fill="black"/>
<path d="M177.9 104.09C176.609 103.41 175.779 102.3 175.418 100.76C175.058 99.2199 174.878 96.7199 174.878 93.2599C174.878 89.7999 175.058 87.2699 175.418 85.7199C175.779 84.1699 176.609 83.0699 177.9 82.4099C179.19 81.7499 181.311 81.4199 184.253 81.4199C187.194 81.4199 189.265 81.7499 190.556 82.4099C191.847 83.0699 192.677 84.1799 193.037 85.7399C193.397 87.2999 193.578 89.8099 193.578 93.2599C193.578 96.7099 193.397 99.2099 193.037 100.76C192.677 102.31 191.847 103.42 190.556 104.09C189.265 104.76 187.164 105.1 184.253 105.1C181.341 105.1 179.19 104.76 177.9 104.09ZM186.994 100.11C187.504 99.8099 187.825 99.2099 187.945 98.3099C188.065 97.4099 188.125 95.7299 188.125 93.2699C188.125 90.8099 188.065 89.0899 187.945 88.2099C187.825 87.3299 187.514 86.7299 187.024 86.4299C186.524 86.1299 185.604 85.9799 184.253 85.9799C182.902 85.9799 181.972 86.1299 181.461 86.4299C180.951 86.7299 180.631 87.3199 180.511 88.2099C180.391 89.0999 180.331 90.7799 180.331 93.2699C180.331 95.7599 180.391 97.4099 180.511 98.3099C180.631 99.2099 180.941 99.8099 181.461 100.11C181.972 100.41 182.902 100.56 184.253 100.56C185.604 100.56 186.494 100.41 187.004 100.11H186.994Z" fill="black"/>
<path d="M200.561 104.07C199.571 103.38 198.85 102.19 198.4 100.49C197.95 98.79 197.72 96.4 197.72 93.31C197.72 90.22 197.94 87.87 198.37 86.17C198.8 84.47 199.511 83.26 200.491 82.52C201.471 81.78 202.822 81.42 204.573 81.42C206.014 81.42 207.214 81.64 208.175 82.07C209.135 82.51 209.886 83.25 210.426 84.3H210.746V71.29H216.149V104.74H211.106L210.926 101.9H210.606C209.736 104.03 207.765 105.1 204.703 105.1C202.932 105.1 201.552 104.76 200.561 104.06V104.07ZM209.145 99.89C209.646 99.62 210.006 99.17 210.246 98.54C210.426 98 210.556 97.32 210.626 96.49C210.696 95.67 210.736 94.59 210.736 93.27C210.736 92.04 210.716 91.06 210.666 90.32C210.616 89.58 210.506 88.96 210.326 88.45C210.116 87.67 209.756 87.11 209.245 86.78C208.735 86.45 207.985 86.28 206.994 86.28C205.764 86.28 204.903 86.42 204.403 86.71C203.913 87 203.573 87.6 203.412 88.51C203.242 89.43 203.162 91.01 203.162 93.26C203.162 95.51 203.242 97.14 203.412 98.06C203.573 98.98 203.913 99.58 204.403 99.86C204.903 100.15 205.764 100.29 206.994 100.29C207.925 100.29 208.635 100.15 209.135 99.88L209.145 99.89Z" fill="black"/>
<path d="M239.07 95.0199H226.504C226.504 96.8199 226.604 98.0699 226.794 98.7799C226.984 99.4899 227.455 99.9699 228.195 100.22C228.935 100.48 230.216 100.6 232.047 100.6C233.998 100.6 236.099 100.48 238.35 100.24V104.43C237.48 104.64 236.339 104.81 234.928 104.93C233.518 105.05 232.147 105.11 230.826 105.11C227.855 105.11 225.684 104.73 224.313 103.96C222.942 103.19 222.062 102.02 221.652 100.45C221.241 98.8699 221.041 96.4999 221.041 93.3099C221.041 90.1199 221.241 87.8699 221.652 86.2599C222.062 84.6499 222.922 83.4499 224.243 82.6399C225.564 81.8299 227.625 81.4199 230.416 81.4199C233.208 81.4199 235.118 81.8099 236.339 82.5899C237.56 83.3699 238.31 84.5299 238.61 86.0799C238.91 87.6299 239.06 90.0299 239.06 93.3099V95.0199H239.07ZM227.805 86.2899C227.295 86.5599 226.954 87.0599 226.794 87.7799C226.624 88.4999 226.534 89.6899 226.504 91.3399H233.938C233.938 89.6899 233.838 88.4899 233.648 87.7399C233.448 86.9899 233.107 86.4999 232.607 86.2499C232.107 86.0099 231.357 85.8899 230.336 85.8899C229.165 85.8899 228.325 86.0199 227.815 86.2999H227.805V86.2899Z" fill="black"/>
<path d="M145.523 132.35C145.523 132 145.433 131.83 145.263 131.83H144.313L139.3 119.57H137.749L133.087 131.83H131.706V132.43H135.678C135.678 132.08 135.588 131.91 135.418 131.91H133.947L135.498 127.76H139.73L141.371 131.91H139.82V132.51H145.523V132.34V132.35ZM139.47 127H135.758L137.569 122.08L139.47 127Z" fill="black"/>
<path d="M156.589 131.84H155.899V123.2H152.097V123.72H153.137V129.07C153.047 130.19 152.617 130.88 151.927 131.32C151.757 131.41 151.496 131.49 151.236 131.49C150.456 131.49 149.936 131.06 149.856 130.11V123.2H145.884V123.72H147.094V129.07C147.094 131.4 148.135 132.52 150.116 132.52C151.416 132.52 152.367 131.92 153.057 130.79C153.147 130.7 153.147 130.62 153.147 130.53L153.237 132.26H157.129C157.129 131.91 157.039 131.74 156.869 131.74C156.779 131.83 156.699 131.83 156.609 131.83L156.589 131.84Z" fill="black"/>
<path d="M157.82 123.8H159.29V129.15C159.29 131.22 160.151 132.35 161.882 132.52H162.402C163.522 132.52 164.213 132.17 164.653 131.48C164.823 131.13 165.003 130.62 165.083 130.1L164.483 130.01C164.223 131.13 163.793 131.82 163.182 131.91H162.922C162.402 131.91 162.062 131.56 161.972 130.79V123.79H164.733V123.27H161.972V120.77L159.29 121.2V123.27H157.82V123.79V123.8Z" fill="black"/>
<path d="M168.795 127.69C168.795 125.7 169.055 124.41 169.575 123.89C169.836 123.54 170.266 123.37 170.876 123.37C171.827 123.37 172.347 123.8 172.607 124.75C172.777 125.35 172.867 126.3 172.867 127.6C172.867 129.67 172.607 130.97 172.087 131.49C171.737 131.75 171.396 131.92 170.876 131.92C170.016 131.92 169.405 131.49 169.145 130.54C168.885 130.02 168.795 129.07 168.795 127.69ZM170.956 122.85C169.225 122.85 167.845 123.45 166.894 124.66C166.204 125.52 165.944 126.56 165.944 127.68C165.944 129.32 166.464 130.53 167.584 131.48C168.445 132.26 169.485 132.6 170.786 132.6C172.427 132.6 173.808 132 174.758 130.79C175.448 129.84 175.799 128.8 175.799 127.59C175.799 126.04 175.198 124.74 174.068 123.88C173.207 123.19 172.167 122.84 170.956 122.84V122.85Z" fill="black"/>
<path d="M181.121 131.84H180.691V126.31C180.781 125.19 181.121 124.41 181.812 124.06C181.982 123.97 182.162 123.89 182.332 123.89C182.852 123.89 183.192 124.24 183.452 124.84C183.542 125.19 183.623 125.53 183.623 125.88V130.63C183.623 131.23 183.452 131.58 183.192 131.67C183.022 131.67 182.842 131.76 182.672 131.76V132.28H187.164C187.164 131.93 187.074 131.76 186.904 131.76H186.304V126.15C186.394 124.94 186.824 124.25 187.424 123.9C187.595 123.81 187.685 123.81 187.855 123.81C188.455 123.81 188.895 124.16 189.155 124.85C189.245 125.11 189.245 125.45 189.245 125.8V130.55C189.245 131.15 189.075 131.5 188.815 131.59C188.645 131.59 188.465 131.68 188.295 131.68V132.2H193.137C193.137 131.85 193.047 131.68 192.877 131.68H191.927V126.07C191.927 124.69 191.497 123.65 190.546 123.13C190.116 122.87 189.686 122.7 189.165 122.7C187.785 122.7 186.744 123.39 186.054 124.69C185.704 123.65 185.103 123.05 184.243 122.79C183.983 122.7 183.813 122.7 183.553 122.7C182.172 122.7 181.221 123.3 180.531 124.6L180.621 123.22H176.819V123.74H178.03V130.74C178.03 131.43 177.68 131.78 177.079 131.86H176.729V132.38H181.572C181.572 132.03 181.481 131.86 181.311 131.86C181.311 131.86 181.221 131.86 181.141 131.86L181.121 131.84Z" fill="black"/>
<path d="M197.179 127.69C197.179 125.7 197.439 124.41 197.96 123.89C198.22 123.54 198.65 123.37 199.26 123.37C200.211 123.37 200.731 123.8 200.991 124.75C201.161 125.35 201.251 126.3 201.251 127.6C201.251 129.67 200.991 130.97 200.471 131.49C200.121 131.75 199.781 131.92 199.26 131.92C198.4 131.92 197.79 131.49 197.529 130.54C197.359 130.02 197.179 129.07 197.179 127.69ZM199.34 122.85C197.61 122.85 196.229 123.45 195.278 124.66C194.588 125.52 194.328 126.56 194.328 127.68C194.328 129.32 194.848 130.53 195.969 131.48C196.829 132.26 197.87 132.6 199.17 132.6C200.811 132.6 202.192 132 203.142 130.79C203.833 129.84 204.183 128.8 204.183 127.59C204.183 126.04 203.583 124.74 202.452 123.88C201.592 123.19 200.551 122.84 199.34 122.84V122.85Z" fill="black"/>
<path d="M211.577 132.61C212.957 132.61 214.078 132.09 214.948 131.06C215.729 130.11 216.069 128.99 216.069 127.52C216.069 125.71 215.469 124.32 214.338 123.55C213.738 123.12 213.037 122.95 212.347 122.95C210.876 122.95 209.756 123.73 209.065 125.11V118.55H205.173V119.15H206.384V130.81C206.384 131.41 206.124 131.76 205.694 131.85H205.173V132.45H208.455L208.625 130.98C209.315 132.02 210.356 132.53 211.567 132.62L211.577 132.61ZM211.316 123.89C212.527 123.89 213.127 125.19 213.127 127.78C213.127 130.54 212.437 132.01 211.136 132.01C210.186 132.01 209.586 131.41 209.235 130.2C209.065 129.6 208.975 128.99 208.975 128.21C208.975 126.31 209.406 124.93 210.186 124.32C210.616 123.97 210.966 123.89 211.306 123.89H211.316Z" fill="black"/>
<path d="M221.962 131.84H221.181V123.2H217.209V123.72H218.42V130.72C218.42 131.32 218.16 131.76 217.64 131.76H217.119V132.28H222.392C222.392 131.93 222.302 131.76 222.132 131.76C222.132 131.85 222.042 131.85 221.962 131.85V131.84ZM221.362 120.35C221.362 119.75 221.101 119.23 220.501 118.97C220.241 118.8 219.981 118.8 219.721 118.8C219.12 118.8 218.68 119.06 218.34 119.66C218.17 119.92 218.17 120.18 218.17 120.44C218.17 121.04 218.43 121.48 219.03 121.82C219.29 121.91 219.551 121.99 219.811 121.99C220.411 121.99 220.931 121.73 221.191 121.21C221.281 120.86 221.362 120.61 221.362 120.35Z" fill="black"/>
<path d="M228.695 131.84H227.655V118.45H223.253V118.97H224.893V130.63C224.893 131.23 224.633 131.58 224.203 131.67C223.943 131.76 223.683 131.76 223.253 131.76V132.28H229.216C229.216 131.93 229.125 131.76 228.955 131.76C228.865 131.85 228.785 131.85 228.695 131.85V131.84Z" fill="black"/>
<path d="M234.998 123.37C235.949 123.37 236.379 124.15 236.379 125.7C236.379 126.39 236.209 126.82 235.779 126.91C235.519 127 235.088 127.08 234.478 127H233.097C233.268 124.67 233.878 123.46 234.998 123.37ZM238.97 130.19L238.45 130.02C238.02 130.88 237.41 131.49 236.549 131.83C236.199 131.92 235.859 132 235.509 132C234.388 132 233.608 131.31 233.258 129.84C233.167 129.24 233.087 128.54 233.087 127.68L235.078 127.77C237.41 127.86 238.71 127.51 239.05 126.73C239.14 126.56 239.14 126.3 239.14 126.04C239.14 124.83 238.54 123.97 237.24 123.36C236.549 123.1 235.769 122.93 234.908 122.93C233.268 122.93 232.057 123.45 231.106 124.57C230.416 125.43 230.066 126.47 230.066 127.77C230.066 129.84 230.846 131.31 232.397 132.09C233.177 132.44 233.948 132.69 234.898 132.69C236.539 132.69 237.75 132.09 238.53 130.96C238.79 130.61 238.88 130.36 238.96 130.18L238.97 130.19Z" fill="black"/>
</g>
<defs>
<clipPath id="clip0_33_2158">
<rect width="258" height="180" fill="white"/>
</clipPath>
</defs>
</svg>
